{
  "scene": 0,
  "scenes" : [
    {
      "nodes" : [ 0 ]
    }
  ],
  
  "nodes" : [
    {
      "mesh" : 0
    }
  ],
  
  "meshes" : [
    {
      "primitives" : [ {
        "attributes" : {
          "POSITION" : 1,
          "TEXCOORD_0":2
        },
        "indices" : 0,
        "material":0,
        "mode" : 4
      } ]
    }
  ],
  "images": [
    {
      "bufferView": 3,
      "mimeType": "image/png"
    }
  ],
  "buffers" : [
    {
      "uri" : "data:application/octet-stream;base64,",
      "byteLength" : 1265628
    },
    {
        "uri": "data:application/octet-stream;base64,",
        "byteLength": 643344
    },
    {
        "uri" : "data:application/octet-stream;base64,",
        "byteLength": 428896
    },
    {
        "byteLength": 273,
        "uri": "data:application/octet-stream;base64,"
      }
  ],
  "bufferViews" : [
    {
      "buffer" : 0,
      "byteOffset" : 0,
      "byteLength" : 1265628,
      "target" : 34963
    },
    {
      "buffer" : 1,
      "byteOffset" : 0,
      "byteLength" : 643344,
      "target" : 34962
    },
    {
        "buffer" : 2,
        "byteOffset" : 0,
        "byteLength" : 428896
    },
    {
        "buffer": 3,
        "byteLength": 273,
        "byteOffset": 0
    }
  ],
  "accessors" : [
    {
      "bufferView" : 0,
      "byteOffset" : 0,
      "componentType" : 5125,
      "count" : 316407 ,
      "type" : "SCALAR",
      "max" : [ 53611 ],
      "min" : [ 0 ]
    },
    {
      "bufferView" : 1,
      "byteOffset" : 0,
      "componentType" : 5126,
      "count" : 53612,
      "type" : "VEC3",
      "max" : [ 3.69163952610866, 3.69266046680755, 7.33835609640135 ],
      "min" : [ 0.335615626838767, 0.381282918590423, 3.3579073628948 ]
    },
    {
        "bufferView" : 2,
        "byteOffset" : 0,
        "componentType" : 5126,
        "count" : 53612,
        "type" : "VEC2",
        "normalized": false
    }
  ],
  
  "asset" : {
    "version" : "2.0"
  },
  "textures": [ {
        "source":0,
        "sampler":0
  }],
  "materials" : [ {
    "pbrMetallicRoughness": {
      "baseColorFactor": [
        1.0,
        1.0,
        1.0,
        1.0
      ],
      "baseColorTexture": {
        "index": 0,
        "texCoord": 0
      },
      "metallicFactor": 0.0,
      "roughnessFactor": 1.0
    },
    "doubleSided": true
  }
],
"samplers": [
    {
      "magFilter": 9728,
      "minFilter": 9728,
      "wrapS": 33071,
      "wrapT": 33071
    }
  ]
}